<?xml version="1.0" encoding="utf-8"?>
<!-- Generator: Adobe Illustrator 17.0.0, SVG Export Plug-In . SVG Version: 6.00 Build 0)  -->
<!DOCTYPE svg PUBLIC "-//W3C//DTD SVG 1.1//EN" "http://www.w3.org/Graphics/SVG/1.1/DTD/svg11.dtd">
<svg version="1.1" xmlns="http://www.w3.org/2000/svg" xmlns:xlink="http://www.w3.org/1999/xlink" x="0px" y="0px"
	 width="249.49px" height="120px" viewBox="0 0 249.49 89.85" enable-background="new 0 0 249.49 89.85" xml:space="preserve">
	<g>
		<g>
			<path fill="#5C5E60" d="M98.97,68.77V16.9h19.27c6.8,0,11.06,2.83,12.76,8.5c0.47,1.46,0.71,3.07,0.71,4.82
				c0,2.93-0.65,5.43-1.95,7.51c-1.3,2.08-3.13,3.43-5.49,4.04c1.89,0.43,3.64,1.71,5.24,3.86c1.61,2.15,2.41,5.04,2.41,8.68
				c0,3.92-0.9,7.23-2.69,9.92c-2.08,3.02-5.74,4.54-10.98,4.54H98.97z M127.67,29.94c0-6-3.14-9-9.43-9h-15.24v18.64h15.24
				c2.93,0,5.23-0.81,6.91-2.44C126.83,35.5,127.67,33.11,127.67,29.94z M103.01,64.74h15.24c6.43,0,9.64-3.52,9.64-10.56
				c0-2.98-0.86-5.48-2.59-7.51c-1.73-2.03-4.05-3.05-6.98-3.05h-0.07h-15.24V64.74z"/>
			<path fill="#5C5E60" d="M139.65,68.77V31.14h2.76l1.28,4.75c0.09-0.05,0.52-0.28,1.28-0.71c0.75-0.43,1.21-0.68,1.38-0.78
				c0.17-0.09,0.58-0.33,1.24-0.71c0.66-0.38,1.12-0.61,1.38-0.71c0.26-0.09,0.71-0.29,1.35-0.6c0.64-0.31,1.13-0.51,1.49-0.6
				c0.35-0.09,0.83-0.24,1.42-0.43c0.59-0.19,1.12-0.31,1.59-0.35c1.37-0.19,2.93-0.28,4.68-0.28c1.75,0,3.07,0.19,3.97,0.57v3.97
				c-1.32-0.28-2.67-0.43-4.04-0.43c-1.37,0-2.34,0.02-2.91,0.07c-0.57,0.05-1.06,0.08-1.49,0.11c-0.42,0.02-0.93,0.12-1.52,0.28
				c-0.59,0.17-1.03,0.26-1.31,0.28c-0.28,0.02-0.76,0.17-1.42,0.43c-0.66,0.26-1.09,0.42-1.28,0.5c-0.19,0.07-0.66,0.27-1.42,0.6
				c-0.76,0.33-1.19,0.53-1.31,0.6c-0.12,0.07-0.63,0.32-1.52,0.74c-0.9,0.43-1.42,0.66-1.56,0.71v29.62H139.65z"/>
			<path fill="#5C5E60" d="M168.98,24.91v-3.97c0-0.99,0.47-1.49,1.42-1.49h2.62c0.9,0,1.35,0.5,1.35,1.49v3.97
				c0,0.95-0.45,1.42-1.35,1.42h-2.62c-0.57,0-0.95-0.17-1.13-0.5C169.08,25.5,168.98,25.19,168.98,24.91z M169.55,68.77V31.14h4.04
				v37.63H169.55z"/>
			<path fill="#5C5E60" d="M182.24,49.92c0-3.21,0.21-5.98,0.64-8.29c0.42-2.31,0.97-4.17,1.63-5.56c0.66-1.39,1.55-2.49,2.66-3.3
				c1.11-0.8,2.23-1.33,3.37-1.59c1.13-0.26,2.5-0.39,4.11-0.39c4.06,0,9.21,0.61,15.45,1.84v2.83c-6.09-0.43-10.39-0.64-12.9-0.64
				s-4.04,0.04-4.61,0.11c-0.57,0.07-1.16,0.24-1.77,0.5c-0.61,0.26-1.13,0.6-1.56,1.03c-0.43,0.43-0.84,1.02-1.24,1.77
				c-0.4,0.76-0.72,1.68-0.96,2.76c-0.52,2.36-0.78,5.47-0.78,9.32c0,3.85,0.33,6.89,0.99,9.11c0.66,2.22,1.57,3.72,2.73,4.5
				c1.16,0.78,2.7,1.17,4.64,1.17c3.87,0,8.34-0.26,13.39-0.78l2.55-0.21v2.98c-4.58,1.28-9.9,1.96-15.95,2.06
				c-4.96,0-8.32-1.77-10.06-5.32C183.02,60.74,182.24,56.11,182.24,49.92z"/>
			<path fill="#5C5E60" d="M216.89,43.26V40c0-3.02,0.74-5.31,2.23-6.87s4-2.34,7.55-2.34c1.75,0,4.65,0.12,8.72,0.35
				c4.06,0.24,7.09,0.45,9.07,0.64v2.98h-17.79c-2.36,0-3.91,0.41-4.64,1.24c-0.73,0.83-1.1,2.16-1.1,4v3.26
				c0,2.27,0.52,3.66,1.56,4.18c0.9,0.38,2.29,0.57,4.18,0.57h10.49c2.88,0,5.14,0.79,6.77,2.37c1.63,1.58,2.44,3.72,2.44,6.41v3.47
				c0,3.73-0.99,6.19-2.98,7.37c-1.65,0.99-3.51,1.49-5.56,1.49s-5.41-0.14-10.06-0.43c-4.65-0.28-7.76-0.52-9.32-0.71v-2.91h18.71
				c1.79,0,2.93-0.24,3.4-0.71c1.18-0.99,1.77-2.36,1.77-4.11V56.8c0-3.16-1.73-4.75-5.17-4.75h-10.49c-3.54,0-6.06-0.59-7.55-1.77
				C217.63,49.1,216.89,46.76,216.89,43.26z"/>
		</g>
	</g>

	<g>
		<polygon fill="#5D0200" points="34,89.85 0,75.85 0,57.85 34,71.85"/>
		<polygon fill="#5D0200" points="34,89.85 68,75.85 68,57.85 34,71.85"/>
		<polygon fill="#880600" points="33.56,45.35 0,57.85 34,71.85 68,57.85"/>
	</g>
	<g>
		<polygon fill="#0F6B76" points="34,67.18 0,53.18 0,35.18 34,49.18"/>
		<polygon fill="#0F6B76" points="34,67.18 68,53.18 68,35.18 34,49.18"/>
		<polygon fill="#189DAC" points="33.56,22.68 0,35.18 34,49.18 68,35.18"/>
	</g>
	<g>
		<polygon fill="#848484" points="34,44.5 0,30.5 0,12.5 34,26.5"/>
		<polygon fill="#9D9D9D" points="34,44.5 68,30.5 68,12.5 34,26.5"/>
		<polygon fill="#C2C2C2" points="33.56,0 0,12.5 34,26.5 68,12.5"/>
	</g>
</svg>
